<?xml version="1.0" standalone="no"?>
<!DOCTYPE svg PUBLIC "-//W3C//DTD SVG 20010904//EN"
 "http://www.w3.org/TR/2001/REC-SVG-20010904/DTD/svg10.dtd">
<svg version="1.0" xmlns="http://www.w3.org/2000/svg"
 width="100.000000pt" height="82.000000pt" viewBox="0 0 500.000000 500.000000"
 preserveAspectRatio="xMidYMid meet">

<g transform="translate(0.000000,500.000000) scale(0.100000,-0.100000)"
fill="#000000" stroke="none">
<path d="M2457 3080 c-83 -21 -136 -67 -167 -146 -10 -27 -19 -42 -20 -33 0 8
-12 39 -26 67 -19 39 -38 59 -72 80 -46 26 -52 27 -229 30 l-183 4 0 -541 0
-541 110 0 110 0 0 214 0 214 88 4 c79 3 93 6 126 32 21 16 46 47 56 69 l18
40 4 -199 c4 -216 11 -250 66 -307 48 -51 99 -71 183 -72 69 -1 82 -5 130 -36
l54 -34 -259 -3 c-171 -1 -264 -6 -273 -13 -7 -6 -13 -24 -13 -40 l0 -29 -307
-2 -308 -3 0 -270 0 -270 308 -3 307 -2 0 -28 c0 -15 5 -33 12 -40 9 -9 101
-12 354 -12 188 0 349 3 358 6 8 3 18 21 22 40 l6 34 297 0 c218 0 300 3 309
12 17 17 17 509 0 526 -9 9 -91 12 -308 12 l-296 0 -10 38 c-9 37 -9 37 -65
40 l-57 3 22 39 21 40 223 0 222 0 0 90 0 90 -110 0 -110 0 0 450 0 451 -107
-3 -108 -3 -5 -527 -5 -526 -41 24 -41 24 26 53 26 52 0 370 c0 360 -1 371
-22 410 -27 51 -68 90 -116 110 -48 20 -150 27 -200 15z m107 -206 c14 -13 16
-58 16 -333 0 -342 -2 -356 -51 -349 -42 6 -48 47 -48 350 -1 172 3 287 10
305 17 44 45 55 73 27z m-518 -8 c16 -12 20 -29 22 -105 4 -85 3 -91 -22 -115
-14 -15 -34 -26 -46 -26 -19 0 -20 6 -20 130 0 129 0 130 23 130 13 0 32 -6
43 -14z m784 -1141 l0 -115 -40 0 -40 0 0 64 c0 42 -5 67 -14 75 -9 8 -74 11
-212 9 l-199 -3 -3 -184 c-2 -141 1 -186 10 -193 7 -4 99 -8 204 -8 144 0 194
3 202 13 6 7 12 42 14 77 l3 64 35 0 35 0 3 -117 3 -117 -296 0 -295 0 0 275
0 275 295 0 295 0 0 -115z"/>
</g>
</svg>
