<?xml version="1.0"?>
<svg width="80" height="70" xmlns="http://www.w3.org/2000/svg" xmlns:svg="http://www.w3.org/2000/svg" preserveAspectRatio="xMidYMid meet" version="1.0">
 <g class="layer">
  <title>Layer 1</title>
  <g fill="#000000" id="svg_1" transform="matrix(0.0254898 0 0 -0.0232937 7.04431 7.86986)">
   <path d="m1419.78,-220.74c-83,-21 -136,-67 -167,-146c-10,-27 -19,-42 -20,-33c0,8 -12,39 -26,67c-19,39 -38,59 -72,80c-46,26 -52,27 -229,30l-183,4l0,-541l0,-541l110,0l110,0l0,214l0,214l88,4c79,3 93,6 126,32c21,16 46,47 56,69l18,40l4,-199c4,-216 11,-250 66,-307c48,-51 99,-71 183,-72c69,-1 82,-5 130,-36l54,-34l-259,-3c-171,-1 -264,-6 -273,-13c-7,-6 -13,-24 -13,-40l0,-29l-307,-2l-308,-3l0,-270l0,-270l308,-3l307,-2l0,-28c0,-15 5,-33 12,-40c9,-9 101,-12 354,-12c188,0 349,3 358,6c8,3 18,21 22,40l6,34l297,0c218,0 300,3 309,12c17,17 17,509 0,526c-9,9 -91,12 -308,12l-296,0l-10,38c-9,37 -9,37 -65,40l-57,3l22,39l21,40l223,0l222,0l0,90l0,90l-110,0l-110,0l0,450l0,451l-107,-3l-108,-3l-5,-527l-5,-526l-41,24l-41,24l26,53l26,52l0,370c0,360 -1,371 -22,410c-27,51 -68,90 -116,110c-48,20 -150,27 -200,15zm107,-206c14,-13 16,-58 16,-333c0,-342 -2,-356 -51,-349c-42,6 -48,47 -48,350c-1,172 3,287 10,305c17,44 45,55 73,27zm-518,-8c16,-12 20,-29 22,-105c4,-85 3,-91 -22,-115c-14,-15 -34,-26 -46,-26c-19,0 -20,6 -20,130c0,129 0,130 23,130c13,0 32,-6 43,-14zm784,-1141l0,-115l-40,0l-40,0l0,64c0,42 -5,67 -14,75c-9,8 -74,11 -212,9l-199,-3l-3,-184c-2,-141 1,-186 10,-193c7,-4 99,-8 204,-8c144,0 194,3 202,13c6,7 12,42 14,77l3,64l35,0l35,0l3,-117l3,-117l-296,0l-295,0l0,275l0,275l295,0l295,0l0,-115z" id="svg_2"/>
  </g>
 </g>
</svg>